<svg width="1069" height="712" viewBox="0 0 1069 712" fill="none" xmlns="http://www.w3.org/2000/svg">
<path d="M214.37 653.438C214.37 653.438 110.25 519.155 218.824 402.28C339.514 272.376 225.488 127.021 345.75 75.2584C515.329 2.27844 545.724 146.601 735.614 110.823C894.183 80.9544 890.833 314.384 843.975 397.688C805.135 466.752 954.866 500.999 878.219 653.118L214.37 653.438Z" fill="#EBF3FA"/>
<g opacity="0.3">
<path opacity="0.3" d="M608.332 294.448C608.332 294.448 624.795 214.49 687.795 203.917C687.795 203.917 700.052 202.066 704.542 215.487C709.032 228.908 684.552 229.727 669.586 235.601C654.62 241.475 620.02 265.612 608.332 294.448Z" fill="#AEC3FF"/>
</g>
<g opacity="0.3">
<path opacity="0.3" d="M606.444 279.638C606.444 279.638 597.963 214.063 643.467 189.357C643.467 189.357 652.375 184.693 659.359 193.807C666.343 202.92 647.814 209.969 637.872 218.406C627.966 226.879 607.798 254.433 606.444 279.638Z" fill="#AEC3FF"/>
</g>
<path d="M350.917 255.644C358.65 233.714 395.922 243.468 395.922 243.468C395.922 243.468 418.692 284.515 426.103 286.01C433.515 287.506 413.489 247.1 413.489 247.1C428.063 246.779 463.625 267.178 463.625 267.178C463.625 267.178 457.924 312.71 465.478 312.319C472.997 311.927 468.471 271.735 468.471 271.735C482.155 276.968 494.021 294.234 494.021 294.234C508.381 322.002 471.964 339.019 471.964 339.019C471.964 339.019 470.324 354.825 478.805 373.729C478.805 373.729 480.765 377.253 482.582 383.127L478.769 382.842C478.52 381.81 478.271 380.778 477.95 379.816C477.95 379.816 477.95 379.816 477.95 379.781V379.745C477.736 379.14 477.415 378.286 477.023 377.218C476.026 374.868 475.349 373.124 474.957 371.842C471.999 364.437 467.652 354.718 464.445 352.511C464.445 352.511 464.908 351.942 465.407 350.838C465.122 351.372 464.801 351.942 464.445 352.511C456.891 366.004 424.037 365.932 406.113 360.877C388.19 355.822 396.492 351.265 406.897 343.647C417.302 336.028 437.684 339.731 443.991 336.918C450.298 334.106 441.675 330.19 429.453 330.226C417.266 330.261 410.282 341.938 390.541 342.365C370.8 342.792 358.578 304.843 358.578 304.843C371.798 310.04 396.635 304.344 397.917 299.752C399.2 295.16 363.211 292.988 357.723 291.172C352.164 289.499 343.185 277.573 350.917 255.644Z" fill="#CDE0FB"/>
<path d="M293.761 600.43C280.256 576.862 317.35 551.408 317.35 551.408C317.35 551.408 371.05 562.622 378.034 557.211C384.983 551.8 333.991 538.664 333.991 538.664C344.824 525.527 390.042 509.721 390.042 509.721C390.042 509.721 425.961 549.486 431.377 542.544C436.793 535.602 397.775 508.938 397.775 508.938C412.848 500.821 437.185 503.526 437.185 503.526C472.747 512.035 459.955 557.211 459.955 557.211C459.955 557.211 472.712 570.739 495.873 577.681C495.873 577.681 500.47 578.642 507.062 581.49L503.891 584.659C502.786 584.054 501.682 583.52 500.577 583.057C500.577 583.057 500.577 583.057 500.541 583.057C500.541 583.057 500.506 583.057 500.506 583.021C499.793 582.736 498.795 582.38 497.548 581.918C494.698 580.992 492.631 580.244 491.205 579.639C482.368 576.613 470.467 573.053 466.084 574.192C466.084 574.192 465.941 573.338 465.3 572.056C465.549 572.733 465.799 573.445 466.084 574.192C472.249 591.174 447.127 620.116 428.954 632.078C410.781 644.04 413.097 633.217 414.344 618.23C415.556 603.242 434.406 588.076 436.722 580.351C439.038 572.626 428.99 577.254 419.725 588.076C410.46 598.899 415.449 613.958 400.768 631.686C386.087 649.451 343.185 631.295 343.185 631.295C357.866 623.57 371.798 597.332 368.698 592.704C365.598 588.076 336.236 618.194 330.428 621.647C324.655 625.136 307.266 623.961 293.761 600.43Z" fill="#AFCDFB"/>
<g opacity="0.5">
<path opacity="0.5" d="M811.478 286.331C808.841 261.909 768.148 262.942 768.148 262.942C768.148 262.942 734.795 299.645 726.813 299.36C718.831 299.111 749.191 262.408 749.191 262.408C734.296 258.527 692.783 270.952 692.783 270.952C692.783 270.952 687.616 319.118 679.955 316.911C672.294 314.704 686.69 274.476 686.69 274.476C671.368 276.541 654.976 291.422 654.976 291.422C633.489 316.52 666.807 342.792 666.807 342.792C666.807 342.792 664.669 359.453 651.377 376.826C651.377 376.826 648.491 379.959 645.213 385.548L649.204 386.189C649.703 385.156 650.237 384.195 650.772 383.27C650.772 383.27 650.772 383.234 650.807 383.234C651.164 382.664 651.698 381.846 652.375 380.849C653.979 378.642 655.083 377.04 655.796 375.829C660.642 368.923 667.448 359.987 671.296 358.528C671.296 358.528 670.94 357.851 670.726 356.57C670.904 357.21 671.083 357.851 671.296 358.528C675.786 374.227 709.567 382.095 729.236 381.24C748.906 380.35 741.458 373.693 732.586 363.334C723.713 352.974 701.87 351.87 696.062 347.456C690.253 343.042 700.088 341.084 712.595 344.074C725.138 347.064 729.45 360.735 749.654 365.968C769.858 371.201 791.594 335.138 791.594 335.138C776.735 337.274 752.612 325.455 752.398 320.4C752.184 315.38 789.706 321.824 795.799 321.29C801.964 320.827 814.079 310.752 811.478 286.331Z" fill="#AFCDFB"/>
</g>
<g opacity="0.2">
<path opacity="0.2" d="M832.858 583.306C859.832 561.198 826.907 513.744 826.907 513.744C826.907 513.744 757.351 502.743 751.471 493.096C745.592 483.448 812.761 490.889 812.761 490.889C805.777 470.205 758.741 430.653 758.741 430.653C758.741 430.653 697.487 462.017 694.173 451.23C690.859 440.443 749.832 426.239 749.832 426.239C735.436 409.649 705.006 401.817 705.006 401.817C658.468 395.837 653.195 455.823 653.195 455.823C653.195 455.823 631.743 466.218 600.742 464.011C600.742 464.011 594.756 463.049 585.563 463.477L587.914 468.71C589.518 468.496 591.086 468.354 592.618 468.318H592.654C592.689 468.318 592.689 468.318 592.725 468.318C593.687 468.318 595.077 468.318 596.751 468.318C600.6 468.496 603.379 468.532 605.375 468.496C617.347 468.852 633.24 469.991 638.015 473.409C638.015 473.409 638.585 472.448 639.903 471.202C639.298 471.914 638.656 472.626 638.015 473.409C622.871 490.995 639.797 537.133 656.117 559.775C672.437 582.38 674.61 568.354 679.991 549.807C685.372 531.259 669.693 504.488 670.441 494.164C671.189 483.84 681.131 493.986 687.331 511.145C693.532 528.34 680.632 544.11 690.182 572.092C699.696 600.074 759.453 597.831 759.453 597.831C745.342 581.882 740.639 544.075 746.447 539.91C752.255 535.744 773.778 585.264 779.159 592.064C784.504 598.899 805.884 605.414 832.858 583.306Z" fill="#AFCDFB"/>
</g>
<path d="M418.406 417.481C417.124 420.934 414.914 424.922 412.563 425.918C409.926 427.058 408.821 428.624 408.821 428.624L406.683 427.378L404.153 425.883C404.153 425.883 404.224 425.598 404.331 425.135C404.438 424.672 404.652 424.032 404.902 423.32C404.902 423.32 405.685 422.323 405.187 421.041C404.723 419.795 404.795 417.837 405.614 416.662C406.434 415.488 407.218 412.568 407.717 412.64C408.892 412.853 407.146 416.876 407.645 417.588C408.108 418.264 408.679 418.015 408.786 417.98C408.786 417.98 408.786 417.98 408.821 417.98C412.171 416.52 416.197 408.617 418.015 409.685C418.692 410.112 418.977 416.022 418.406 417.481Z" fill="#FFB27D"/>
<path d="M406.861 422.252L411.031 425.206C411.316 425.42 411.743 425.349 411.957 425.064L422.683 409.827C422.896 409.542 422.825 409.115 422.54 408.902L418.371 405.947C418.086 405.733 417.658 405.804 417.445 406.089L406.719 421.326C406.505 421.646 406.576 422.038 406.861 422.252Z" fill="#2B478B"/>
<path d="M410.71 424.957L413.169 426.666C413.382 426.808 413.703 426.773 413.881 426.559L424.785 411.073C424.928 410.86 424.892 410.539 424.678 410.361L422.219 408.652C422.006 408.51 421.685 408.546 421.507 408.759L410.603 424.245C410.425 424.494 410.461 424.779 410.71 424.957Z" fill="#233862"/>
<path d="M346.855 400.393C346.855 400.393 368.128 437.488 375.86 444.324L404.189 423.248C404.189 423.248 408.287 424.494 410.104 428.624C410.104 428.624 392.893 463.619 375.967 465.114C359.041 466.609 335.274 423.177 335.274 423.177L346.855 400.393Z" fill="#94B0ED"/>
<path d="M298.679 652.69H286.385C284.853 651.836 283.463 649.914 283.035 647.066C282.43 643.114 278.011 640.942 277.049 637.703C276.087 634.463 281.004 629.906 281.004 629.906L281.824 628.838L282.679 627.735L290.839 629.657C290.839 629.657 291.053 631.615 291.16 634.072C291.267 635.852 291.302 637.916 291.196 639.732C290.946 644.04 292.407 648.703 296.255 649.522C299.07 650.163 298.928 651.872 298.679 652.69Z" fill="#233862"/>
<path d="M370.052 652.69H341.937C340.583 651.053 341.082 644.965 341.296 642.972C341.332 642.58 341.367 642.331 341.367 642.331C341.367 642.331 350.988 634.641 352.307 640.515C352.342 640.693 352.378 640.871 352.449 641.049C354.124 646.532 361.572 649.059 365.883 649.736C368.627 650.234 369.66 651.694 370.052 652.69Z" fill="#233862"/>
<path d="M364.707 495.837C364.707 495.837 363.246 514.028 361.536 535.887C359.22 565.577 356.405 602.032 356.119 608.938C355.656 620.935 353.732 640.124 353.732 640.124C353.732 640.124 349.171 644.68 340.049 642.758C340.049 642.758 331.924 615.382 329.608 586.403C329.573 585.94 329.537 585.442 329.501 584.979C327.328 555.467 323.978 493.345 323.978 493.345L364.707 495.837Z" fill="#F99746"/>
<path d="M364.707 495.837C364.707 495.837 363.246 514.028 361.536 535.887L329.573 586.403C329.537 585.94 329.501 585.442 329.466 584.979C327.292 555.467 323.943 493.345 323.943 493.345L364.707 495.837Z" fill="#ED7D2B"/>
<path d="M358.044 498.008C358.044 498.008 331.746 563.833 314.464 594.805C297.182 625.741 291.766 634.392 291.766 634.392C291.766 634.392 281.86 630.44 280.969 627.735C280.969 627.735 287.597 567.998 299.142 553.438C305.698 545.214 313.359 520.508 313.716 511.892C314.072 503.242 316.068 486.154 316.068 486.154L358.044 498.008Z" fill="#F99746"/>
<path d="M351.487 401.995C341.225 405.235 323.444 396.477 323.444 396.477C323.444 396.477 332.922 389.357 332.423 374.619L340.37 381.027L345.75 385.37C345.75 385.37 345.715 387.933 345.144 392.419C345.002 393.594 346.32 396.192 347.461 397.652C350.596 401.639 351.487 401.995 351.487 401.995Z" fill="#FFB27D"/>
<path d="M345.75 385.37C345.75 385.37 345.715 387.933 345.144 392.419C339.158 391.386 332.388 381.739 332.388 381.739C335.417 380.849 338.089 380.706 340.37 381.027L345.75 385.37Z" fill="#ED975D"/>
<path d="M348.886 385.121C348.886 385.121 331.924 387.933 330.321 377.36C328.717 366.787 325.475 360.023 336.236 357.78C346.997 355.537 349.705 359.239 351.095 362.657C352.521 366.039 353.269 384.124 348.886 385.121Z" fill="#FFB27D"/>
<path d="M365.812 497.332C365.491 497.581 365.135 497.759 364.743 497.759C360.894 497.724 349.634 499.86 340.12 498.863C332.103 498.08 324.976 495.73 317.351 492.312C316.353 491.85 314.001 490.604 314.072 489.5C314.108 488.254 314.215 486.474 314.393 484.196C314.927 476.328 315.89 462.8 314.963 447.207C314.785 444.288 314.714 441.404 314.714 438.592C314.642 417.446 318.847 398.827 327.257 392.526C327.969 392.027 332.388 394.163 336.45 396.157C340.191 398.008 343.969 398.222 347.496 397.51L351.06 400.642C355.371 404.665 360.11 410.112 362.177 418.371C363.923 425.42 364.957 438.094 365.527 451.266C365.776 457.211 365.99 463.227 366.026 468.959V469.172C366.061 469.742 366.061 470.347 366.061 470.917C366.311 485.513 366.097 497.154 365.812 497.332Z" fill="#AEC3FF"/>
<path d="M314.393 484.196C314.927 476.328 315.889 462.8 314.963 447.207C314.785 444.288 314.714 441.404 314.714 438.592C318.241 430.084 321.092 423.889 321.092 423.889H329.965C329.929 423.854 336.414 468.176 314.393 484.196Z" fill="#94B0ED"/>
<path d="M269.032 534.427L306.803 539.803C311.72 540.515 316.317 537.062 317.03 532.149L319.346 515.808C320.059 510.896 316.602 506.303 311.685 505.591L273.913 500.215C268.996 499.503 264.399 502.957 263.687 507.869L261.37 524.21C260.658 529.123 264.114 533.715 269.032 534.427Z" fill="#233862"/>
<path d="M313.823 510.433C312.754 507.763 310.473 505.698 307.551 504.986C307.266 504.915 306.981 504.844 306.696 504.808L299.177 503.74L299.676 500.216C299.783 499.432 299.569 498.649 299.106 498.008C298.643 497.368 297.93 496.94 297.146 496.834L295.187 496.549L287.276 495.41L285.851 495.196C284.211 494.982 282.715 496.086 282.465 497.724L281.967 501.248L268.996 499.397C264.079 498.685 259.446 502.138 258.734 507.086L256.382 523.64C255.669 528.553 259.126 533.181 264.079 533.893L301.779 539.269C302.456 539.376 303.097 539.376 303.739 539.34C304.772 539.269 305.77 539.02 306.696 538.592C309.475 537.382 311.578 534.783 312.041 531.579L314.393 515.025C314.607 513.459 314.393 511.857 313.823 510.433ZM284.283 498.044C284.354 497.546 284.746 497.19 285.209 497.118C285.316 497.083 285.423 497.083 285.53 497.118L287.205 497.368L293.405 498.258L296.79 498.756C297.396 498.827 297.823 499.397 297.752 500.002L297.253 503.526L283.748 501.604L284.283 498.044Z" fill="#2B478B"/>
<path d="M297.752 485.726C297.752 485.726 295.757 488.361 295.685 489.429C295.151 496.584 298.429 497.581 289.948 501.533C289.948 501.533 286.349 502.921 286.278 500.109C286.207 497.296 288.773 497.261 288.309 493.345C287.775 488.824 287.81 488.788 290.804 486.403L292.763 483.163L297.752 485.726Z" fill="#FFB27D"/>
<path d="M292.692 487.72C295.899 488.325 299.356 488.076 299.356 488.076C299.356 488.076 308.834 458.848 310.046 456.178C311.257 453.508 338.16 421.896 338.16 421.896L326.936 393.878C326.936 393.878 297.823 442.437 294.866 449.272C289.984 460.557 288.274 485.833 288.274 485.833C288.274 485.833 290.198 487.257 292.692 487.72Z" fill="#AEC3FF"/>
<path d="M330.321 376.363C330.321 376.363 332.067 376.078 331.782 373.693C331.497 371.308 331.497 368.175 333.457 368.745C335.417 369.314 335.488 370.881 336.307 369.991C337.091 369.065 337.127 365.256 342.935 364.971C348.743 364.686 351.095 366.716 353.803 365.541C356.511 364.366 356.654 360.272 356.654 360.272C356.654 360.272 355.87 361.732 354.73 362.194C354.73 362.194 359.22 356.036 354.017 351.835C348.815 347.634 343.505 350.375 340.476 350.553C333.849 350.945 329.537 351.336 327.363 355.715C325.154 360.023 326.045 372.162 330.321 376.363Z" fill="#2B478B"/>
<path d="M294.616 488.859C294.616 488.859 296.541 490.853 296.647 491.672C297.039 494.342 297.93 495.481 297.467 495.766C296.541 496.371 295.329 494.413 294.723 492.633C294.153 490.853 294.616 488.859 294.616 488.859Z" fill="#FFB27D"/>
<path d="M646.923 649.664H462.556C450.975 649.664 441.568 640.266 441.568 628.696V276.363C441.568 264.793 450.975 255.394 462.556 255.394H646.923C658.504 255.394 667.911 264.793 667.911 276.363V628.696C667.876 640.266 658.504 649.664 646.923 649.664Z" fill="#4B59D7"/>
<path d="M646.923 652.299H462.556C449.55 652.299 438.931 641.726 438.931 628.696V276.363C438.931 263.369 449.514 252.76 462.556 252.76H646.923C659.929 252.76 670.548 263.333 670.548 276.363V628.696C670.512 641.726 659.929 652.299 646.923 652.299ZM462.556 258.064C452.436 258.064 444.205 266.288 444.205 276.398V628.696C444.205 638.806 452.436 647.03 462.556 647.03H646.923C657.043 647.03 665.274 638.806 665.274 628.696V276.363C665.274 266.252 657.043 258.029 646.923 258.029H462.556V258.064Z" fill="#2B478B"/>
<g opacity="0.9">
<path opacity="0.9" d="M629.142 359.168H480.302V507.87H629.142V359.168Z" fill="white"/>
</g>
<path d="M501.147 492.277H495.232V498.186H501.147V492.277Z" fill="#2B478B"/>
<path d="M507.062 492.277H501.147V498.186H507.062V492.277Z" fill="#2B478B"/>
<path d="M512.977 492.277H507.062V498.186H512.977V492.277Z" fill="#2B478B"/>
<path d="M518.893 492.277H512.977V498.186H518.893V492.277Z" fill="#2B478B"/>
<path d="M524.808 492.277H518.893V498.186H524.808V492.277Z" fill="#2B478B"/>
<path d="M536.638 492.277H530.723V498.186H536.638V492.277Z" fill="#2B478B"/>
<path d="M542.553 492.277H536.638V498.186H542.553V492.277Z" fill="#2B478B"/>
<path d="M560.299 492.277H554.384V498.186H560.299V492.277Z" fill="#2B478B"/>
<path d="M572.485 492.277H566.214V498.186H572.485V492.277Z" fill="#2B478B"/>
<path d="M578.4 492.277H572.485V498.186H578.4V492.277Z" fill="#2B478B"/>
<path d="M590.231 492.277H584.315V498.186H590.231V492.277Z" fill="#2B478B"/>
<path d="M596.146 492.277H590.23V498.186H596.146V492.277Z" fill="#2B478B"/>
<path d="M602.061 492.277H596.146V498.186H602.061V492.277Z" fill="#2B478B"/>
<path d="M607.976 492.277H602.061V498.186H607.976V492.277Z" fill="#2B478B"/>
<path d="M613.891 492.277H607.976V498.186H613.891V492.277Z" fill="#2B478B"/>
<path d="M620.163 492.277H613.891V498.186H620.163V492.277Z" fill="#2B478B"/>
<path d="M495.232 492.277H489.317V498.186H495.232V492.277Z" fill="#2B478B"/>
<path d="M524.808 486.367H518.893V492.277H524.808V486.367Z" fill="#2B478B"/>
<path d="M542.553 486.367H536.638V492.277H542.553V486.367Z" fill="#2B478B"/>
<path d="M554.384 486.367H548.468V492.277H554.384V486.367Z" fill="#2B478B"/>
<path d="M560.299 486.367H554.384V492.277H560.299V486.367Z" fill="#2B478B"/>
<path d="M566.214 486.367H560.299V492.277H566.214V486.367Z" fill="#2B478B"/>
<path d="M572.485 486.367H566.214V492.277H572.485V486.367Z" fill="#2B478B"/>
<path d="M590.231 486.367H584.315V492.277H590.231V486.367Z" fill="#2B478B"/>
<path d="M620.163 486.367H613.891V492.277H620.163V486.367Z" fill="#2B478B"/>
<path d="M495.232 486.367H489.317V492.277H495.232V486.367Z" fill="#2B478B"/>
<path d="M507.062 480.458H501.147V486.367H507.062V480.458Z" fill="#2B478B"/>
<path d="M512.977 480.458H507.062V486.367H512.977V480.458Z" fill="#2B478B"/>
<path d="M524.808 480.458H518.893V486.367H524.808V480.458Z" fill="#2B478B"/>
<path d="M536.638 480.458H530.723V486.367H536.638V480.458Z" fill="#2B478B"/>
<path d="M542.553 480.458H536.638V486.367H542.553V480.458Z" fill="#2B478B"/>
<path d="M548.468 480.458H542.553V486.367H548.468V480.458Z" fill="#2B478B"/>
<path d="M560.299 480.458H554.384V486.367H560.299V480.458Z" fill="#2B478B"/>
<path d="M566.214 480.458H560.299V486.367H566.214V480.458Z" fill="#2B478B"/>
<path d="M572.485 480.458H566.214V486.367H572.485V480.458Z" fill="#2B478B"/>
<path d="M578.4 480.458H572.485V486.367H578.4V480.458Z" fill="#2B478B"/>
<path d="M590.231 480.458H584.315V486.367H590.231V480.458Z" fill="#2B478B"/>
<path d="M602.061 480.458H596.146V486.367H602.061V480.458Z" fill="#2B478B"/>
<path d="M607.976 480.458H602.061V486.367H607.976V480.458Z" fill="#2B478B"/>
<path d="M620.163 480.458H613.891V486.367H620.163V480.458Z" fill="#2B478B"/>
<path d="M495.232 480.458H489.317V486.367H495.232V480.458Z" fill="#2B478B"/>
<path d="M507.062 474.548H501.147V480.458H507.062V474.548Z" fill="#2B478B"/>
<path d="M512.977 474.548H507.062V480.458H512.977V474.548Z" fill="#2B478B"/>
<path d="M524.808 474.548H518.893V480.458H524.808V474.548Z" fill="#2B478B"/>
<path d="M536.638 474.548H530.723V480.458H536.638V474.548Z" fill="#2B478B"/>
<path d="M548.468 474.548H542.553V480.458H548.468V474.548Z" fill="#2B478B"/>
<path d="M560.299 474.548H554.384V480.458H560.299V474.548Z" fill="#2B478B"/>
<path d="M590.231 474.548H584.315V480.458H590.231V474.548Z" fill="#2B478B"/>
<path d="M602.061 474.548H596.146V480.458H602.061V474.548Z" fill="#2B478B"/>
<path d="M607.976 474.548H602.061V480.458H607.976V474.548Z" fill="#2B478B"/>
<path d="M620.163 474.548H613.891V480.458H620.163V474.548Z" fill="#2B478B"/>
<path d="M495.232 474.548H489.317V480.458H495.232V474.548Z" fill="#2B478B"/>
<path d="M524.808 468.638H518.893V474.548H524.808V468.638Z" fill="#2B478B"/>
<path d="M536.638 468.638H530.723V474.548H536.638V468.638Z" fill="#2B478B"/>
<path d="M542.553 468.638H536.638V474.548H542.553V468.638Z" fill="#2B478B"/>
<path d="M548.468 468.638H542.553V474.548H548.468V468.638Z" fill="#2B478B"/>
<path d="M560.299 468.638H554.384V474.548H560.299V468.638Z" fill="#2B478B"/>
<path d="M566.214 468.638H560.299V474.548H566.214V468.638Z" fill="#2B478B"/>
<path d="M578.4 468.638H572.485V474.548H578.4V468.638Z" fill="#2B478B"/>
<path d="M590.231 468.638H584.315V474.548H590.231V468.638Z" fill="#2B478B"/>
<path d="M620.163 468.638H613.891V474.548H620.163V468.638Z" fill="#2B478B"/>
<path d="M495.232 468.638H489.317V474.548H495.232V468.638Z" fill="#2B478B"/>
<path d="M501.147 462.729H495.232V468.638H501.147V462.729Z" fill="#2B478B"/>
<path d="M507.062 462.729H501.147V468.638H507.062V462.729Z" fill="#2B478B"/>
<path d="M512.977 462.729H507.062V468.638H512.977V462.729Z" fill="#2B478B"/>
<path d="M518.893 462.729H512.977V468.638H518.893V462.729Z" fill="#2B478B"/>
<path d="M524.808 462.729H518.893V468.638H524.808V462.729Z" fill="#2B478B"/>
<path d="M536.638 462.729H530.723V468.638H536.638V462.729Z" fill="#2B478B"/>
<path d="M548.468 462.729H542.553V468.638H548.468V462.729Z" fill="#2B478B"/>
<path d="M554.384 462.729H548.468V468.638H554.384V462.729Z" fill="#2B478B"/>
<path d="M566.214 462.729H560.299V468.638H566.214V462.729Z" fill="#2B478B"/>
<path d="M590.231 462.729H584.315V468.638H590.231V462.729Z" fill="#2B478B"/>
<path d="M596.146 462.729H590.23V468.638H596.146V462.729Z" fill="#2B478B"/>
<path d="M602.061 462.729H596.146V468.638H602.061V462.729Z" fill="#2B478B"/>
<path d="M607.976 462.729H602.061V468.638H607.976V462.729Z" fill="#2B478B"/>
<path d="M613.891 462.729H607.976V468.638H613.891V462.729Z" fill="#2B478B"/>
<path d="M620.163 462.729H613.891V468.638H620.163V462.729Z" fill="#2B478B"/>
<path d="M495.232 462.729H489.317V468.638H495.232V462.729Z" fill="#2B478B"/>
<path d="M554.384 456.819H548.468V462.729H554.384V456.819Z" fill="#2B478B"/>
<path d="M560.299 456.819H554.384V462.729H560.299V456.819Z" fill="#2B478B"/>
<path d="M566.214 456.819H560.299V462.729H566.214V456.819Z" fill="#2B478B"/>
<path d="M578.4 456.819H572.485V462.729H578.4V456.819Z" fill="#2B478B"/>
<path d="M501.147 450.91H495.232V456.819H501.147V450.91Z" fill="#2B478B"/>
<path d="M507.062 450.91H501.147V456.819H507.062V450.91Z" fill="#2B478B"/>
<path d="M512.977 450.91H507.062V456.819H512.977V450.91Z" fill="#2B478B"/>
<path d="M518.893 450.91H512.977V456.819H518.893V450.91Z" fill="#2B478B"/>
<path d="M536.638 450.91H530.723V456.819H536.638V450.91Z" fill="#2B478B"/>
<path d="M542.553 450.91H536.638V456.819H542.553V450.91Z" fill="#2B478B"/>
<path d="M548.468 450.91H542.553V456.819H548.468V450.91Z" fill="#2B478B"/>
<path d="M560.299 450.91H554.384V456.819H560.299V450.91Z" fill="#2B478B"/>
<path d="M566.214 450.91H560.299V456.819H566.214V450.91Z" fill="#2B478B"/>
<path d="M572.485 450.91H566.214V456.819H572.485V450.91Z" fill="#2B478B"/>
<path d="M578.4 450.91H572.485V456.819H578.4V450.91Z" fill="#2B478B"/>
<path d="M584.315 450.91H578.4V456.819H584.315V450.91Z" fill="#2B478B"/>
<path d="M590.231 450.91H584.315V456.819H590.231V450.91Z" fill="#2B478B"/>
<path d="M596.146 450.91H590.23V456.819H596.146V450.91Z" fill="#2B478B"/>
<path d="M602.061 450.91H596.146V456.819H602.061V450.91Z" fill="#2B478B"/>
<path d="M613.891 450.91H607.976V456.819H613.891V450.91Z" fill="#2B478B"/>
<path d="M620.163 450.91H613.891V456.819H620.163V450.91Z" fill="#2B478B"/>
<path d="M507.062 445H501.147V450.91H507.062V445Z" fill="#2B478B"/>
<path d="M512.977 445H507.062V450.91H512.977V445Z" fill="#2B478B"/>
<path d="M530.723 445H524.808V450.91H530.723V445Z" fill="#2B478B"/>
<path d="M536.638 445H530.723V450.91H536.638V445Z" fill="#2B478B"/>
<path d="M548.468 445H542.553V450.91H548.468V445Z" fill="#2B478B"/>
<path d="M566.214 445H560.299V450.91H566.214V445Z" fill="#2B478B"/>
<path d="M578.4 445H572.485V450.91H578.4V445Z" fill="#2B478B"/>
<path d="M584.315 445H578.4V450.91H584.315V445Z" fill="#2B478B"/>
<path d="M596.146 445H590.23V450.91H596.146V445Z" fill="#2B478B"/>
<path d="M602.061 445H596.146V450.91H602.061V445Z" fill="#2B478B"/>
<path d="M501.147 439.09H495.232V445H501.147V439.09Z" fill="#2B478B"/>
<path d="M512.977 439.09H507.062V445H512.977V439.09Z" fill="#2B478B"/>
<path d="M518.893 439.09H512.977V445H518.893V439.09Z" fill="#2B478B"/>
<path d="M524.808 439.09H518.893V445H524.808V439.09Z" fill="#2B478B"/>
<path d="M530.723 439.09H524.808V445H530.723V439.09Z" fill="#2B478B"/>
<path d="M542.553 439.09H536.638V445H542.553V439.09Z" fill="#2B478B"/>
<path d="M548.468 439.09H542.553V445H548.468V439.09Z" fill="#2B478B"/>
<path d="M554.384 439.09H548.468V445H554.384V439.09Z" fill="#2B478B"/>
<path d="M560.299 439.09H554.384V445H560.299V439.09Z" fill="#2B478B"/>
<path d="M566.214 439.09H560.299V445H566.214V439.09Z" fill="#2B478B"/>
<path d="M572.485 439.09H566.214V445H572.485V439.09Z" fill="#2B478B"/>
<path d="M602.061 439.09H596.146V445H602.061V439.09Z" fill="#2B478B"/>
<path d="M607.976 439.09H602.061V445H607.976V439.09Z" fill="#2B478B"/>
<path d="M620.163 439.09H613.891V445H620.163V439.09Z" fill="#2B478B"/>
<path d="M495.232 439.09H489.317V445H495.232V439.09Z" fill="#2B478B"/>
<path d="M501.147 433.181H495.232V439.09H501.147V433.181Z" fill="#2B478B"/>
<path d="M507.062 433.181H501.147V439.09H507.062V433.181Z" fill="#2B478B"/>
<path d="M512.977 433.181H507.062V439.09H512.977V433.181Z" fill="#2B478B"/>
<path d="M536.638 433.181H530.723V439.09H536.638V433.181Z" fill="#2B478B"/>
<path d="M542.553 433.181H536.638V439.09H542.553V433.181Z" fill="#2B478B"/>
<path d="M566.214 433.181H560.299V439.09H566.214V433.181Z" fill="#2B478B"/>
<path d="M584.315 433.181H578.4V439.09H584.315V433.181Z" fill="#2B478B"/>
<path d="M590.231 433.181H584.315V439.09H590.231V433.181Z" fill="#2B478B"/>
<path d="M602.061 433.181H596.146V439.09H602.061V433.181Z" fill="#2B478B"/>
<path d="M607.976 433.181H602.061V439.09H607.976V433.181Z" fill="#2B478B"/>
<path d="M613.891 433.181H607.976V439.09H613.891V433.181Z" fill="#2B478B"/>
<path d="M620.163 433.181H613.891V439.09H620.163V433.181Z" fill="#2B478B"/>
<path d="M495.232 433.181H489.317V439.09H495.232V433.181Z" fill="#2B478B"/>
<path d="M512.977 427.236H507.062V433.145H512.977V427.236Z" fill="#2B478B"/>
<path d="M518.893 427.236H512.977V433.145H518.893V427.236Z" fill="#2B478B"/>
<path d="M524.808 427.236H518.893V433.145H524.808V427.236Z" fill="#2B478B"/>
<path d="M530.723 427.236H524.808V433.145H530.723V427.236Z" fill="#2B478B"/>
<path d="M536.638 427.236H530.723V433.145H536.638V427.236Z" fill="#2B478B"/>
<path d="M542.553 427.236H536.638V433.145H542.553V427.236Z" fill="#2B478B"/>
<path d="M560.299 427.236H554.384V433.145H560.299V427.236Z" fill="#2B478B"/>
<path d="M578.4 427.236H572.485V433.145H578.4V427.236Z" fill="#2B478B"/>
<path d="M584.315 427.236H578.4V433.145H584.315V427.236Z" fill="#2B478B"/>
<path d="M607.976 427.236H602.061V433.145H607.976V427.236Z" fill="#2B478B"/>
<path d="M495.232 427.236H489.317V433.145H495.232V427.236Z" fill="#2B478B"/>
<path d="M501.147 421.326H495.232V427.236H501.147V421.326Z" fill="#2B478B"/>
<path d="M507.062 421.326H501.147V427.236H507.062V421.326Z" fill="#2B478B"/>
<path d="M512.977 421.326H507.062V427.236H512.977V421.326Z" fill="#2B478B"/>
<path d="M518.893 421.326H512.977V427.236H518.893V421.326Z" fill="#2B478B"/>
<path d="M530.723 421.326H524.808V427.236H530.723V421.326Z" fill="#2B478B"/>
<path d="M542.553 421.326H536.638V427.236H542.553V421.326Z" fill="#2B478B"/>
<path d="M548.468 421.326H542.553V427.236H548.468V421.326Z" fill="#2B478B"/>
<path d="M560.299 421.326H554.384V427.236H560.299V421.326Z" fill="#2B478B"/>
<path d="M566.214 421.326H560.299V427.236H566.214V421.326Z" fill="#2B478B"/>
<path d="M572.485 421.326H566.214V427.236H572.485V421.326Z" fill="#2B478B"/>
<path d="M578.4 421.326H572.485V427.236H578.4V421.326Z" fill="#2B478B"/>
<path d="M590.231 421.326H584.315V427.236H590.231V421.326Z" fill="#2B478B"/>
<path d="M596.146 421.326H590.23V427.236H596.146V421.326Z" fill="#2B478B"/>
<path d="M602.061 421.326H596.146V427.236H602.061V421.326Z" fill="#2B478B"/>
<path d="M607.976 421.326H602.061V427.236H607.976V421.326Z" fill="#2B478B"/>
<path d="M620.163 421.326H613.891V427.236H620.163V421.326Z" fill="#2B478B"/>
<path d="M501.147 415.417H495.232V421.326H501.147V415.417Z" fill="#2B478B"/>
<path d="M512.977 415.417H507.062V421.326H512.977V415.417Z" fill="#2B478B"/>
<path d="M524.808 415.417H518.893V421.326H524.808V415.417Z" fill="#2B478B"/>
<path d="M530.723 415.417H524.808V421.326H530.723V415.417Z" fill="#2B478B"/>
<path d="M548.468 415.417H542.553V421.326H548.468V415.417Z" fill="#2B478B"/>
<path d="M554.384 415.417H548.468V421.326H554.384V415.417Z" fill="#2B478B"/>
<path d="M560.299 415.417H554.384V421.326H560.299V415.417Z" fill="#2B478B"/>
<path d="M572.485 415.417H566.214V421.326H572.485V415.417Z" fill="#2B478B"/>
<path d="M578.4 415.417H572.485V421.326H578.4V415.417Z" fill="#2B478B"/>
<path d="M584.315 415.417H578.4V421.326H584.315V415.417Z" fill="#2B478B"/>
<path d="M596.146 415.417H590.23V421.326H596.146V415.417Z" fill="#2B478B"/>
<path d="M607.976 415.417H602.061V421.326H607.976V415.417Z" fill="#2B478B"/>
<path d="M613.891 415.417H607.976V421.326H613.891V415.417Z" fill="#2B478B"/>
<path d="M620.163 415.417H613.891V421.326H620.163V415.417Z" fill="#2B478B"/>
<path d="M495.232 415.417H489.317V421.326H495.232V415.417Z" fill="#2B478B"/>
<path d="M501.147 409.507H495.232V415.417H501.147V409.507Z" fill="#2B478B"/>
<path d="M524.808 409.507H518.893V415.417H524.808V409.507Z" fill="#2B478B"/>
<path d="M530.723 409.507H524.808V415.417H530.723V409.507Z" fill="#2B478B"/>
<path d="M542.553 409.507H536.638V415.417H542.553V409.507Z" fill="#2B478B"/>
<path d="M548.468 409.507H542.553V415.417H548.468V409.507Z" fill="#2B478B"/>
<path d="M560.299 409.507H554.384V415.417H560.299V409.507Z" fill="#2B478B"/>
<path d="M566.214 409.507H560.299V415.417H566.214V409.507Z" fill="#2B478B"/>
<path d="M578.4 409.507H572.485V415.417H578.4V409.507Z" fill="#2B478B"/>
<path d="M584.315 409.507H578.4V415.417H584.315V409.507Z" fill="#2B478B"/>
<path d="M590.231 409.507H584.315V415.417H590.231V409.507Z" fill="#2B478B"/>
<path d="M596.146 409.507H590.23V415.417H596.146V409.507Z" fill="#2B478B"/>
<path d="M602.061 409.507H596.146V415.417H602.061V409.507Z" fill="#2B478B"/>
<path d="M607.976 409.507H602.061V415.417H607.976V409.507Z" fill="#2B478B"/>
<path d="M495.232 409.507H489.317V415.417H495.232V409.507Z" fill="#2B478B"/>
<path d="M542.553 403.597H536.638V409.507H542.553V403.597Z" fill="#2B478B"/>
<path d="M554.384 403.597H548.468V409.507H554.384V403.597Z" fill="#2B478B"/>
<path d="M560.299 403.597H554.384V409.507H560.299V403.597Z" fill="#2B478B"/>
<path d="M572.485 403.597H566.214V409.507H572.485V403.597Z" fill="#2B478B"/>
<path d="M578.4 403.597H572.485V409.507H578.4V403.597Z" fill="#2B478B"/>
<path d="M584.315 403.597H578.4V409.507H584.315V403.597Z" fill="#2B478B"/>
<path d="M501.147 397.688H495.232V403.597H501.147V397.688Z" fill="#2B478B"/>
<path d="M507.062 397.688H501.147V403.597H507.062V397.688Z" fill="#2B478B"/>
<path d="M512.977 397.688H507.062V403.597H512.977V397.688Z" fill="#2B478B"/>
<path d="M518.893 397.688H512.977V403.597H518.893V397.688Z" fill="#2B478B"/>
<path d="M524.808 397.688H518.893V403.597H524.808V397.688Z" fill="#2B478B"/>
<path d="M536.638 397.688H530.723V403.597H536.638V397.688Z" fill="#2B478B"/>
<path d="M542.553 397.688H536.638V403.597H542.553V397.688Z" fill="#2B478B"/>
<path d="M560.299 397.688H554.384V403.597H560.299V397.688Z" fill="#2B478B"/>
<path d="M584.315 397.688H578.4V403.597H584.315V397.688Z" fill="#2B478B"/>
<path d="M590.231 397.688H584.315V403.597H590.231V397.688Z" fill="#2B478B"/>
<path d="M602.061 397.688H596.146V403.597H602.061V397.688Z" fill="#2B478B"/>
<path d="M620.163 397.688H613.891V403.597H620.163V397.688Z" fill="#2B478B"/>
<path d="M495.232 397.688H489.317V403.597H495.232V397.688Z" fill="#2B478B"/>
<path d="M524.808 391.778H518.893V397.688H524.808V391.778Z" fill="#2B478B"/>
<path d="M572.485 391.778H566.214V397.688H572.485V391.778Z" fill="#2B478B"/>
<path d="M578.4 391.778H572.485V397.688H578.4V391.778Z" fill="#2B478B"/>
<path d="M590.231 391.778H584.315V397.688H590.231V391.778Z" fill="#2B478B"/>
<path d="M596.146 391.778H590.23V397.688H596.146V391.778Z" fill="#2B478B"/>
<path d="M607.976 391.778H602.061V397.688H607.976V391.778Z" fill="#2B478B"/>
<path d="M613.891 391.778H607.976V397.688H613.891V391.778Z" fill="#2B478B"/>
<path d="M620.163 391.778H613.891V397.688H620.163V391.778Z" fill="#2B478B"/>
<path d="M495.232 391.778H489.317V397.688H495.232V391.778Z" fill="#2B478B"/>
<path d="M507.062 385.868H501.147V391.778H507.062V385.868Z" fill="#2B478B"/>
<path d="M512.977 385.868H507.062V391.778H512.977V385.868Z" fill="#2B478B"/>
<path d="M524.808 385.868H518.893V391.778H524.808V385.868Z" fill="#2B478B"/>
<path d="M536.638 385.868H530.723V391.778H536.638V385.868Z" fill="#2B478B"/>
<path d="M542.553 385.868H536.638V391.778H542.553V385.868Z" fill="#2B478B"/>
<path d="M554.384 385.868H548.468V391.778H554.384V385.868Z" fill="#2B478B"/>
<path d="M560.299 385.868H554.384V391.778H560.299V385.868Z" fill="#2B478B"/>
<path d="M572.485 385.868H566.214V391.778H572.485V385.868Z" fill="#2B478B"/>
<path d="M596.146 385.868H590.23V391.778H596.146V385.868Z" fill="#2B478B"/>
<path d="M602.061 385.868H596.146V391.778H602.061V385.868Z" fill="#2B478B"/>
<path d="M607.976 385.868H602.061V391.778H607.976V385.868Z" fill="#2B478B"/>
<path d="M495.232 385.868H489.317V391.778H495.232V385.868Z" fill="#2B478B"/>
<path d="M507.062 379.959H501.147V385.868H507.062V379.959Z" fill="#2B478B"/>
<path d="M512.977 379.959H507.062V385.868H512.977V379.959Z" fill="#2B478B"/>
<path d="M524.808 379.959H518.893V385.868H524.808V379.959Z" fill="#2B478B"/>
<path d="M536.638 379.959H530.723V385.868H536.638V379.959Z" fill="#2B478B"/>
<path d="M548.468 379.959H542.553V385.868H548.468V379.959Z" fill="#2B478B"/>
<path d="M554.384 379.959H548.468V385.868H554.384V379.959Z" fill="#2B478B"/>
<path d="M560.299 379.959H554.384V385.868H560.299V379.959Z" fill="#2B478B"/>
<path d="M566.214 379.959H560.299V385.868H566.214V379.959Z" fill="#2B478B"/>
<path d="M572.485 379.959H566.214V385.868H572.485V379.959Z" fill="#2B478B"/>
<path d="M584.315 379.959H578.4V385.868H584.315V379.959Z" fill="#2B478B"/>
<path d="M590.231 379.959H584.315V385.868H590.231V379.959Z" fill="#2B478B"/>
<path d="M596.146 379.959H590.23V385.868H596.146V379.959Z" fill="#2B478B"/>
<path d="M607.976 379.959H602.061V385.868H607.976V379.959Z" fill="#2B478B"/>
<path d="M613.891 379.959H607.976V385.868H613.891V379.959Z" fill="#2B478B"/>
<path d="M620.163 379.959H613.891V385.868H620.163V379.959Z" fill="#2B478B"/>
<path d="M495.232 379.959H489.317V385.868H495.232V379.959Z" fill="#2B478B"/>
<path d="M524.808 374.049H518.893V379.959H524.808V374.049Z" fill="#2B478B"/>
<path d="M548.468 374.049H542.553V379.959H548.468V374.049Z" fill="#2B478B"/>
<path d="M554.384 374.049H548.468V379.959H554.384V374.049Z" fill="#2B478B"/>
<path d="M566.214 374.049H560.299V379.959H566.214V374.049Z" fill="#2B478B"/>
<path d="M572.485 374.049H566.214V379.959H572.485V374.049Z" fill="#2B478B"/>
<path d="M578.4 374.049H572.485V379.959H578.4V374.049Z" fill="#2B478B"/>
<path d="M584.315 374.049H578.4V379.959H584.315V374.049Z" fill="#2B478B"/>
<path d="M613.891 374.049H607.976V379.959H613.891V374.049Z" fill="#2B478B"/>
<path d="M495.232 374.049H489.317V379.959H495.232V374.049Z" fill="#2B478B"/>
<path d="M501.147 368.14H495.232V374.049H501.147V368.14Z" fill="#2B478B"/>
<path d="M507.062 368.14H501.147V374.049H507.062V368.14Z" fill="#2B478B"/>
<path d="M512.977 368.14H507.062V374.049H512.977V368.14Z" fill="#2B478B"/>
<path d="M518.893 368.14H512.977V374.049H518.893V368.14Z" fill="#2B478B"/>
<path d="M524.808 368.14H518.893V374.049H524.808V368.14Z" fill="#2B478B"/>
<path d="M536.638 368.14H530.723V374.049H536.638V368.14Z" fill="#2B478B"/>
<path d="M542.553 368.14H536.638V374.049H542.553V368.14Z" fill="#2B478B"/>
<path d="M572.485 368.14H566.214V374.049H572.485V368.14Z" fill="#2B478B"/>
<path d="M584.315 368.14H578.4V374.049H584.315V368.14Z" fill="#2B478B"/>
<path d="M596.146 368.14H590.23V374.049H596.146V368.14Z" fill="#2B478B"/>
<path d="M602.061 368.14H596.146V374.049H602.061V368.14Z" fill="#2B478B"/>
<path d="M620.163 368.14H613.891V374.049H620.163V368.14Z" fill="#2B478B"/>
<path d="M495.232 368.14H489.317V374.049H495.232V368.14Z" fill="#2B478B"/>
<g opacity="0.8">
<g opacity="0.8">
<g opacity="0.8">
<path opacity="0.8" d="M469.54 379.781C468.365 379.781 467.438 378.855 467.438 377.68V349.022C467.438 347.848 468.365 346.922 469.54 346.922H498.475C499.651 346.922 500.577 347.848 500.577 349.022C500.577 350.197 499.651 351.123 498.475 351.123H471.643V377.68C471.643 378.855 470.716 379.781 469.54 379.781Z" fill="white"/>
</g>
</g>
<g opacity="0.8">
<g opacity="0.8">
<path opacity="0.8" d="M639.939 379.923C638.763 379.923 637.837 378.998 637.837 377.823V351.016H611.254C610.078 351.016 609.152 350.09 609.152 348.916C609.152 347.741 610.078 346.815 611.254 346.815H639.939C641.115 346.815 642.042 347.741 642.042 348.916V377.823C642.042 378.998 641.079 379.923 639.939 379.923Z" fill="white"/>
</g>
</g>
</g>
<g opacity="0.8">
<g opacity="0.8">
<g opacity="0.8">
<path opacity="0.8" d="M639.939 523.961H611.005C609.829 523.961 608.902 523.035 608.902 521.86C608.902 520.686 609.829 519.76 611.005 519.76H637.837V493.202C637.837 492.028 638.763 491.102 639.939 491.102C641.115 491.102 642.042 492.028 642.042 493.202V521.86C642.042 523.035 641.079 523.961 639.939 523.961Z" fill="white"/>
</g>
</g>
<g opacity="0.8">
<g opacity="0.8">
<path opacity="0.8" d="M498.225 524.103H469.54C468.365 524.103 467.438 523.177 467.438 522.003V493.06C467.438 491.885 468.365 490.959 469.54 490.959C470.716 490.959 471.643 491.885 471.643 493.06V519.867H498.225C499.401 519.867 500.328 520.792 500.328 521.967C500.328 523.142 499.401 524.103 498.225 524.103Z" fill="white"/>
</g>
</g>
</g>
<path d="M629.142 563.833V567.856C629.142 570.063 627.361 571.843 625.151 571.843H484.293C482.083 571.843 480.302 570.063 480.302 567.856V563.833C480.302 561.626 482.083 559.846 484.293 559.846H625.151C627.361 559.846 629.142 561.661 629.142 563.833Z" fill="white"/>
<path d="M584.315 559.846V571.843H484.293C482.083 571.843 480.302 570.063 480.302 567.856V563.833C480.302 561.626 482.083 559.846 484.293 559.846H584.315Z" fill="#ED7D2B"/>
<path d="M563.47 559.846L552.423 571.843H531.685L542.767 559.846H563.47Z" fill="#F99746"/>
<path d="M584.315 559.846V571.843H565.109L576.191 559.846H584.315Z" fill="#F99746"/>
<path d="M530.153 559.846L519.071 571.843H498.368L509.414 559.846H530.153Z" fill="#F99746"/>
<path d="M496.8 559.846L485.718 571.843H484.186C481.976 571.843 480.195 570.063 480.195 567.856V563.833C480.195 561.626 481.976 559.846 484.186 559.846H496.8Z" fill="#F99746"/>
<path d="M539.453 553.01L540.237 552.085C540.95 552.69 541.662 553.046 542.589 553.046C543.408 553.046 543.907 552.69 543.907 552.085C543.907 551.551 543.622 551.266 542.232 550.946C540.665 550.59 539.738 550.091 539.738 548.703C539.738 547.421 540.807 546.531 542.268 546.531C543.337 546.531 544.228 546.852 544.976 547.457L544.263 548.454C543.586 547.955 542.909 547.706 542.232 547.706C541.484 547.706 541.021 548.098 541.021 548.596C541.021 549.166 541.377 549.415 542.803 549.771C544.37 550.162 545.19 550.732 545.19 551.978C545.19 553.366 544.085 554.185 542.517 554.185C541.448 554.185 540.344 553.794 539.453 553.01Z" fill="white"/>
<path d="M546.437 550.376C546.437 548.276 548.005 546.531 550.286 546.531C551.64 546.531 552.495 546.994 553.208 547.706L552.352 548.667C551.747 548.098 551.105 547.742 550.286 547.742C548.86 547.742 547.827 548.916 547.827 550.376C547.827 551.836 548.86 553.01 550.286 553.01C551.212 553.01 551.782 552.654 552.424 552.049L553.279 552.904C552.495 553.722 551.64 554.221 550.25 554.221C548.041 554.221 546.437 552.548 546.437 550.376Z" fill="white"/>
<path d="M557.27 546.602H558.481L561.759 554.078H560.37L559.621 552.298H556.094L555.345 554.078H553.991L557.27 546.602ZM559.123 551.159L557.84 548.169L556.557 551.159H559.123Z" fill="white"/>
<path d="M563.007 546.674H564.218L568.209 551.8V546.674H569.492V554.114H568.387L564.29 548.81V554.114H563.007V546.674Z" fill="white"/>
<path d="M666.343 494.413C673.221 492.419 680.953 494.698 685.799 499.966C697.772 512.96 688.935 523 694.957 532.078C698.592 537.56 701.62 547.208 690.396 552.904C685.193 555.538 669.729 569.315 666.593 569.636C634.523 572.911 633.953 540.408 644.75 530.974C659.929 517.731 646.032 500.322 666.343 494.413Z" fill="#233862"/>
<path d="M683.127 544.68C683.127 544.68 712.417 558.849 717.905 558.6C723.392 558.35 757.672 546.318 757.672 546.318L756.816 552.12C756.816 552.12 730.733 567.108 721.611 567.962C712.631 568.817 681.951 559.917 678.993 558.03C676 556.143 674.503 546.567 683.127 544.68Z" fill="#ED985F"/>
<path d="M686.334 558.03C683.697 559.881 680.347 561.376 676.178 562.338C660.535 565.969 654.513 552.726 652.268 543.648C654.406 542.437 656.402 542.152 657.578 542.01C658.718 541.868 659.894 541.796 660.891 541.725C662.637 540.372 665.274 534.89 665.844 526.31L666.593 526.524L678.922 529.906C678.922 529.906 678.352 533.822 678.067 537.524C677.853 540.408 677.817 543.185 678.352 543.861C679.314 544.075 679.884 544.217 679.884 544.217C680.098 544.538 683.661 550.412 686.334 558.03Z" fill="#FFB27D"/>
<path d="M678.922 529.942C678.922 529.942 678.352 533.858 678.067 537.56C671.083 536.848 667.84 530.226 666.557 526.56L678.922 529.942Z" fill="#ED985F"/>
<path d="M680.989 533.644C680.989 533.644 664.383 532.718 665.132 522.43C665.844 512.106 664.205 505.057 674.824 505.2C685.443 505.342 687.224 509.436 687.83 512.925C688.436 516.414 685.336 533.608 680.989 533.644Z" fill="#FFB27D"/>
<path d="M687.759 507.122C685.407 503.847 683.447 504.381 682.271 505.235C673.577 499.61 667.199 506.552 667.199 506.552C665.559 513.886 659.929 517.731 659.929 517.731C659.929 517.731 662.887 520.08 669.907 518.514C678.922 516.52 681.986 508.724 682.414 507.514C683.376 508.51 684.588 509.116 685.514 511.252C686.619 513.779 687.331 515.239 687.331 519.404C687.367 519.404 691.251 512.07 687.759 507.122Z" fill="#233862"/>
<path d="M647.529 591.743C646.033 584.089 641.151 553.509 646.033 543.683C647.779 540.159 654.656 539.838 662.21 540.123C664.562 541.654 673.506 547.386 677.212 546.638C677.247 546.638 677.319 546.602 677.425 546.602C679.171 546.175 679.813 544.965 678.352 543.897C678.352 543.897 681.666 544.146 686.298 545C688.935 545.499 696.133 549.913 696.133 549.913C696.133 549.913 692.855 555.004 687.617 557.211C688.507 565.186 687.189 568.71 678.886 587.186C671.867 602.779 679.849 616.806 679.849 616.806C679.849 616.806 638.585 649.949 638.371 633.075C638.193 620.401 649.453 601.533 647.529 591.743Z" fill="#F99746"/>
<path d="M681.915 652.868C684.16 652.619 686.191 651.373 687.438 649.522C687.652 649.237 687.866 648.917 688.08 648.561C692.783 641.441 694.6 619.689 705.183 596.549C707.749 590.924 716.978 589.892 719.508 583.52C719.508 583.52 725.708 562.836 707.642 562.231C689.576 561.626 659.252 619.76 658.789 625.848C658.29 631.722 646.816 656.82 681.915 652.868Z" fill="#94B0ED"/>
<path d="M753.681 652.762H727.989C727.989 652.762 727.027 648.561 728.702 645.677C730.198 643.15 729.628 641.69 728.523 639.59C729.699 640.088 731.196 640.515 732.871 640.408C734.154 640.337 735.508 639.732 736.683 639.02C737.788 640.302 742.527 645.82 744.024 646.923C745.699 648.205 753.182 647.778 753.681 652.762Z" fill="#0D2644"/>
<path d="M720.078 568.176C721.611 579.782 727.668 616.378 738.323 634.214C741.743 639.981 729.664 643.185 729.592 643.185C727.953 642.758 725.281 640.159 724.034 639.056C715.375 631.259 697.808 609.187 697.808 591.494C697.808 582.879 697.665 566.396 703.936 562.195C707.785 559.632 719.437 563.584 720.078 568.176Z" fill="#94B0ED"/>
<path d="M648.562 558.03C648.562 558.03 653.765 568.639 678.138 576.115C702.475 583.591 688.578 564.794 688.578 564.794L654.513 552.904L648.562 558.03Z" fill="#ED7D2B"/>
<path d="M669.336 652.904C669.336 652.904 670.655 650.946 671.474 648.062C672.864 643.221 673.363 639.696 676 632.149C678.779 624.21 682.093 614.492 686.227 604.346C687.51 601.213 688.864 598.044 690.289 594.876C692.854 589.251 699.946 589.999 702.476 583.626C702.476 583.626 712.31 561.519 694.244 560.914C676.178 560.308 641.863 620.045 639.868 625.848C637.73 632.149 629.962 658.956 669.336 652.904Z" fill="#AEC3FF"/>
<path d="M734.831 652.762H709.103C709.103 652.762 708.141 648.561 709.816 645.677C711.313 643.15 710.742 641.69 709.638 639.59C710.814 640.088 712.31 640.515 713.985 640.408C715.268 640.337 716.622 639.732 717.798 639.02C718.902 640.302 723.642 645.82 725.138 646.923C726.813 648.205 734.296 647.778 734.831 652.762Z" fill="#163560"/>
<g opacity="0.5">
<path opacity="0.5" d="M676 632.114C678.779 624.175 682.093 614.456 686.227 604.31C685.158 596.62 682.806 589.892 678.886 587.186C678.922 587.186 669.408 616.592 676 632.114Z" fill="#94B0ED"/>
</g>
<path d="M705.041 567.357C706.573 578.963 708.782 616.379 719.437 634.214C722.858 639.981 710.778 643.185 710.707 643.185C709.068 642.758 706.395 640.159 705.148 639.056C696.489 631.259 678.922 609.187 678.922 591.494C678.922 582.879 689.042 567.072 695.349 562.872C699.197 560.308 704.435 562.765 705.041 567.357Z" fill="#AEC3FF"/>
<path d="M760.701 531.366L734.367 528.589C733.583 528.518 732.871 528.945 732.586 529.657L723.178 554.399C722.751 555.467 723.535 556.642 724.711 556.713L750.83 557.781C751.543 557.817 752.184 557.389 752.469 556.749L762.09 533.751C762.518 532.647 761.841 531.472 760.701 531.366Z" fill="#DB6B3A"/>
<path d="M762.981 531.615L736.648 528.838C735.864 528.767 735.151 529.194 734.866 529.906L725.459 554.648C725.032 555.716 725.816 556.891 726.991 556.962L753.111 558.03C753.823 558.066 754.465 557.638 754.75 556.998L764.371 534C764.834 532.896 764.121 531.722 762.981 531.615Z" fill="#F78248"/>
<path d="M748.407 543.149C748.728 542.259 748.264 541.547 747.373 541.547C746.483 541.547 745.521 542.259 745.2 543.149C744.879 544.039 745.342 544.751 746.233 544.751C747.124 544.751 748.086 544.039 748.407 543.149Z" fill="#EBF3FA"/>
<path d="M762.197 533.929C762.34 533.502 762.126 533.146 761.698 533.146C761.271 533.146 760.772 533.502 760.629 533.929C760.487 534.356 760.7 534.712 761.128 534.712C761.556 534.712 762.055 534.356 762.197 533.929Z" fill="#EBF3FA"/>
<path d="M652.268 543.683C652.268 543.683 688.757 557.104 694.244 556.82C697.772 556.642 727.241 546.282 727.241 546.282L729.877 551.266C729.877 551.266 701.193 569.671 693.318 569.6C677.746 569.422 651.484 559.881 648.527 557.994C645.605 556.143 643.645 545.57 652.268 543.683Z" fill="#FFB27D"/>
<path d="M727.241 546.318C727.241 546.318 729.877 542.259 732.514 542.117C735.151 541.974 739.712 543.897 741.244 544.217C742.777 544.538 747.231 545.962 745.912 548.098C744.594 550.234 738.501 550.732 735.864 550.234C733.227 549.771 729.878 551.302 729.878 551.302L727.241 546.318Z" fill="#FFB27D"/>
<path d="M731.802 542.259C731.802 542.259 736.006 540.337 737.182 539.981C738.394 539.625 738.144 539.981 737.788 541.12C737.432 542.259 735.258 543.327 735.258 543.683C735.258 544.039 731.802 542.259 731.802 542.259Z" fill="#FFB27D"/>
<path d="M760.273 544.146C760.273 544.146 758.598 538.664 756.781 540.372C754.856 542.152 756.032 543.968 756.282 546.246C756.745 550.625 757.6 550.447 758.17 550.234C758.74 550.02 760.914 546.353 760.273 544.146Z" fill="#FFB27D"/>
<path d="M760.379 545C760.379 545 761.235 549.664 756.781 552.12L758.099 548.916L760.379 545Z" fill="#FFB27D"/>
<path d="M684.089 527.699C684.089 527.699 682.521 527.094 678.102 527.45C678.102 527.45 678.352 529.158 681.594 529.336C683.447 529.408 684.089 527.699 684.089 527.699Z" fill="white"/>
<path d="M671.082 550.305C671.082 550.305 667.804 560.629 656.615 562.978C656.615 562.978 638.121 557.282 647.315 544.68C647.315 544.68 656.401 537.916 671.082 550.305Z" fill="#F99746"/>
<path d="M760.38 545.641C760.38 545.641 761.163 543.078 761.199 542.615C761.235 542.152 761.199 541.939 760.807 542.259C760.415 542.58 759.809 543.398 759.988 544.182C760.166 544.965 760.38 545.641 760.38 545.641Z" fill="#FFB27D"/>
<path d="M519.926 313.992C519.178 314.846 519.071 315.808 519.463 316.804C520.14 318.691 522.385 320.792 525.022 322.892C525.342 323.177 525.663 323.39 525.913 323.64C525.984 323.711 526.055 323.746 526.126 323.818C526.162 323.853 526.233 323.924 526.269 323.96C528.692 326.203 527.801 326.737 532.184 331.294C537.173 336.491 540.629 336.598 541.591 336.1C542.411 335.708 540.736 332.931 538.883 329.834C538.776 329.692 538.705 329.549 538.598 329.371C538.349 328.944 538.099 328.552 537.85 328.125C535.676 324.387 536.211 322.643 536.745 317.089C537.173 312.568 543.765 291.92 543.765 291.92L534.179 290.282C534.179 290.282 531.293 306.73 528.122 309.257C526.411 310.61 524.523 310.61 522.884 311.642C522.777 311.714 522.67 311.785 522.527 311.856C521.637 312.532 520.674 313.138 519.926 313.992Z" fill="#FFC49C"/>
<path d="M519.926 313.992C519.178 314.846 519.071 315.808 519.463 316.804C520.282 318.691 522.492 320.792 525.022 322.856C525.342 323.141 525.627 323.39 525.913 323.604C525.984 323.675 526.055 323.711 526.126 323.782C526.162 323.818 526.233 323.889 526.269 323.924C528.692 326.167 527.801 326.701 532.184 331.258C537.173 336.456 540.629 336.562 541.591 336.064C542.411 335.672 540.736 332.896 538.883 329.798C537.921 329.442 533.396 327.627 529.975 323.248C526.982 319.403 524.95 314.49 522.919 311.642C522.812 311.714 522.706 311.785 522.563 311.856C521.637 312.532 520.674 313.138 519.926 313.992Z" fill="#233862"/>
<path d="M597.144 308.047C597.749 311.002 601.954 310.503 606.658 309.364C611.361 308.225 610.257 309.578 616.956 308.83C623.655 308.082 625.686 305.59 625.9 304.594C626.078 303.704 622.764 303.383 619.236 302.992C618.773 302.956 618.345 302.885 617.882 302.814C613.891 302.315 610.934 299.716 607.299 297.616C603.843 295.622 598.711 287.399 598.711 287.399L589.518 288.111C589.518 288.111 594.329 295.409 596.217 298.613C597.322 300.5 597.25 302.956 597.108 304.878C597.001 305.946 596.93 306.979 597.144 308.047Z" fill="#FFC49C"/>
<path d="M606.658 309.328C611.361 308.189 610.257 309.542 616.956 308.794C623.655 308.047 625.686 305.555 625.9 304.558C626.078 303.668 622.764 303.348 619.236 302.956L619.201 303.027C619.201 303.027 615.174 305.875 609.615 306.018C605.054 306.124 600.244 304.843 597.108 304.878C597.037 305.911 596.965 306.979 597.179 308.011C597.714 311.002 601.954 310.503 606.658 309.328Z" fill="#233862"/>
<path d="M561.938 249.342L553.35 272.447L542.126 302.6C542.126 302.6 539.097 302.885 536.175 302.066C533.502 301.283 530.402 299.254 530.402 299.254C530.402 299.254 533.502 266.893 539.311 248.31C540.807 243.54 542.482 239.695 544.299 237.523C553.35 226.879 561.938 249.342 561.938 249.342Z" fill="#ED7D2B"/>
<path d="M553.208 212.674C547.863 210.93 533.039 212.995 517.717 215.914C516.327 216.163 514.938 215.558 514.189 214.348L512.051 210.788L477.237 208.082C477.237 208.082 468.258 228.481 472.071 245.462C472.997 249.627 478.093 255.003 485.861 255.501C507.668 256.854 522.385 249.307 545.012 241.332C548.932 239.944 550.749 248.702 554.847 257.281C558.945 265.861 593.331 295.302 593.331 295.302C593.331 295.302 598.605 295.338 600.814 294.554C603.166 293.664 604.021 292.525 604.021 292.525C604.021 292.525 565.893 216.768 553.208 212.674Z" fill="#F99746"/>
<path d="M510.661 109.506C506.207 107.156 499.401 106.836 498.297 106.693C485.112 104.913 477.166 124.066 476.703 129.869C475.848 140.549 470.182 142.186 462.2 148.879C446.201 162.3 450.904 177.929 459.635 183.732C464.873 187.22 474.137 183.732 474.137 183.732C474.28 183.838 499.437 169.67 511.802 162.87C530.402 160.236 522.028 115.451 510.661 109.506Z" fill="#233862"/>
<path d="M501.432 157.067C501.504 157.103 495.339 159.203 491.206 157.388C487.322 155.679 484.4 149.306 484.471 149.306C486.217 149.235 488.177 147.704 489.638 137.594L490.386 137.879L503 142.4C503 142.4 502.074 146.458 501.504 150.303C501.005 153.543 500.755 156.64 501.432 157.067Z" fill="#FFB27D"/>
<path d="M503 142.4C503 142.4 502.359 145.284 501.682 149.2C494.448 147.882 491.42 141.795 490.386 137.879L503 142.4Z" fill="#ED975D"/>
<path d="M504.889 146.423C504.889 146.423 487.642 144.109 489.246 133.393C490.849 122.678 489.709 115.166 500.791 116.198C511.873 117.231 513.405 121.645 513.726 125.348C514.082 129.05 509.414 146.743 504.889 146.423Z" fill="#FFB27D"/>
<path d="M513.12 119.474C513.12 119.474 502.074 128.979 494.555 129.762C487.037 130.545 484.186 128.124 484.186 128.124C484.186 128.124 488.605 124.458 491.277 118.512C492.061 116.768 493.736 115.558 495.624 115.415C501.005 114.917 511.16 114.703 513.12 119.474Z" fill="#233862"/>
<path d="M506.207 118.619C506.207 118.619 509.913 122.179 511.053 124.849C512.194 127.412 512.514 133.5 511.624 135.956C511.624 135.956 517.396 124.778 514.118 119.331C510.661 113.528 506.207 118.619 506.207 118.619Z" fill="#233862"/>
<path d="M515.971 182.486C517.289 213.6 515.187 211.891 512.016 213.386C510.911 213.92 508.524 214.668 505.103 214.882C494.377 215.594 475.563 213.814 474.85 211.856C472.391 205.02 474.137 202.884 472.071 192.418C471.857 191.314 471.607 190.104 471.287 188.787C469.576 181.596 467.902 179.139 473.995 167.605C479.518 157.138 485.255 148.63 485.79 148.95C500.364 157.601 501.539 150.339 501.539 150.339C501.539 150.339 515.223 165.469 515.971 182.486Z" fill="#AEC3FF"/>
<path d="M553.35 272.447L542.126 302.6C542.126 302.6 539.097 302.885 536.175 302.066C533.502 301.283 530.402 299.254 530.402 299.254C530.402 299.254 533.502 266.893 539.311 248.31L553.35 272.447Z" fill="#F99746"/>
<path d="M501.504 150.303C501.504 150.303 516.505 152.831 518.287 159.31C520.033 165.754 530.402 203.703 530.402 203.703C530.402 203.703 522.777 205.056 519.249 201.567C515.721 198.043 506.991 168.886 506.991 168.886L501.504 150.303Z" fill="#AEC3FF"/>
<path d="M505.067 214.882C494.342 215.594 475.527 213.814 474.814 211.856C472.356 205.02 474.102 202.884 472.035 192.418L477.202 177.893C477.202 177.893 476.347 194.091 481.122 198.328C485.896 202.6 500.684 206.551 503 210.111C504.141 211.784 504.853 213.493 505.067 214.882Z" fill="#94B0ED"/>
<path d="M492.809 208.082C492.809 208.082 503.357 205.732 505.067 206.658C506.777 207.584 510.946 211.001 511.445 212.176C511.98 213.351 507.668 211.286 506.243 210.894C505.316 210.645 502.929 211.464 501.753 211.891C496.764 213.564 493.7 212.71 493.7 212.71L492.809 208.082Z" fill="#FFB27D"/>
<path d="M485.754 148.915C485.754 148.915 471.572 149.805 466.654 156.64C459.741 166.288 446.023 207.334 453.898 212.781C462.735 218.94 494.163 214.383 494.163 214.383C494.163 214.383 495.197 209.506 493.771 207.121C492.346 204.736 468.685 200.926 467.581 199.858C466.476 198.79 481.228 178.605 481.228 175.33C481.193 172.09 485.754 148.915 485.754 148.915Z" fill="#AEC3FF"/>
<path d="M505.602 209.613C505.602 209.613 507.811 212.461 508.523 212.817C509.236 213.173 509.735 213.066 509.735 213.066L508.238 210.396L505.602 209.613Z" fill="#FFB27D"/>
<path d="M505.067 206.658L511.517 209.791C511.517 209.791 511.232 210.254 510.448 210.218C509.664 210.182 507.668 209.435 507.668 209.435L505.067 206.658Z" fill="#FFB27D"/>
<path d="M508.523 217.16H559.443L574.766 179.104H523.917L508.523 217.16Z" fill="#2B478B"/>
<path d="M560.049 215.665H492.809V217.16H559.443L560.049 215.665Z" fill="#2B478B"/>
<path d="M546.58 198.15C546.972 196.797 546.188 195.729 544.834 195.729C543.48 195.729 542.09 196.797 541.698 198.15C541.306 199.502 542.09 200.57 543.444 200.57C544.798 200.57 546.223 199.467 546.58 198.15Z" fill="#EBF3FA"/>
<path d="M926.823 654.577H158.283C157.784 654.577 157.357 654.15 157.357 653.652V653.225C157.357 652.726 157.784 652.299 158.283 652.299H926.823C927.322 652.299 927.75 652.726 927.75 653.225V653.652C927.75 654.15 927.322 654.577 926.823 654.577Z" fill="#2E3552"/>
</svg>
